<svg width="13" height="21" viewBox="0 0 13 21" fill="none" xmlns="http://www.w3.org/2000/svg">
<path d="M0.4 18.52C0.4 17.36 1.28 16.4 2.48 16.4C3.64 16.4 4.6 17.36 4.6 18.52C4.6 19.72 3.64 20.6 2.48 20.6C1.28 20.6 0.4 19.72 0.4 18.52ZM4.4 14.52C4.4 13.36 5.28 12.4 6.48 12.4C7.64 12.4 8.6 13.36 8.6 14.52C8.6 15.72 7.64 16.6 6.48 16.6C5.28 16.6 4.4 15.72 4.4 14.52ZM8.4 10.52C8.4 9.36 9.28 8.4 10.48 8.4C11.64 8.4 12.6 9.36 12.6 10.52C12.6 11.72 11.64 12.6 10.48 12.6C9.28 12.6 8.4 11.72 8.4 10.52ZM4.4 6.52C4.4 5.36 5.28 4.4 6.48 4.4C7.64 4.4 8.6 5.36 8.6 6.52C8.6 7.72 7.64 8.6 6.48 8.6C5.28 8.6 4.4 7.72 4.4 6.52ZM0.4 2.52C0.4 1.36 1.28 0.4 2.48 0.4C3.64 0.4 4.6 1.36 4.6 2.52C4.6 3.72 3.64 4.6 2.48 4.6C1.28 4.6 0.4 3.72 0.4 2.52Z" fill="#F1F2EE"/>
</svg>
