<svg width="17" height="16" viewBox="0 0 17 16" fill="none" xmlns="http://www.w3.org/2000/svg">
<g id="ArrowUpRight">
<path id="Vector" d="M12.6248 4V10.5C12.6248 10.6326 12.5721 10.7598 12.4783 10.8536C12.3846 10.9473 12.2574 11 12.1248 11C11.9922 11 11.865 10.9473 11.7712 10.8536C11.6775 10.7598 11.6248 10.6326 11.6248 10.5V5.20687L4.47854 12.3538C4.38472 12.4476 4.25747 12.5003 4.12479 12.5003C3.99211 12.5003 3.86486 12.4476 3.77104 12.3538C3.67722 12.2599 3.62451 12.1327 3.62451 12C3.62451 11.8673 3.67722 11.7401 3.77104 11.6462L10.9179 4.5H5.62479C5.49218 4.5 5.365 4.44732 5.27124 4.35355C5.17747 4.25979 5.12479 4.13261 5.12479 4C5.12479 3.86739 5.17747 3.74021 5.27124 3.64645C5.365 3.55268 5.49218 3.5 5.62479 3.5H12.1248C12.2574 3.5 12.3846 3.55268 12.4783 3.64645C12.5721 3.74021 12.6248 3.86739 12.6248 4Z" fill="#F8F8F6"/>
</g>
</svg>
