<?xml version="1.0" encoding="UTF-8" standalone="no"?>
<svg
   width="32"
   height="32"
   viewBox="0 0 32 32"
   fill="none"
   version="1.1"
   id="svg4"
   sodipodi:docname="eye-closed.svg"
   inkscape:version="1.2.1 (9c6d41e410, 2022-07-14)"
   xmlns:inkscape="http://www.inkscape.org/namespaces/inkscape"
   xmlns:sodipodi="http://sodipodi.sourceforge.net/DTD/sodipodi-0.dtd"
   xmlns="http://www.w3.org/2000/svg"
   xmlns:svg="http://www.w3.org/2000/svg">
  <defs
     id="defs8" />
  <sodipodi:namedview
     id="namedview6"
     pagecolor="#ffffff"
     bordercolor="#000000"
     borderopacity="0.25"
     inkscape:showpageshadow="2"
     inkscape:pageopacity="0.0"
     inkscape:pagecheckerboard="0"
     inkscape:deskcolor="#d1d1d1"
     showgrid="false"
     inkscape:zoom="23.21875"
     inkscape:cx="16"
     inkscape:cy="16"
     inkscape:window-width="1920"
     inkscape:window-height="1015"
     inkscape:window-x="1080"
     inkscape:window-y="876"
     inkscape:window-maximized="1"
     inkscape:current-layer="svg4" />
  <path
     fill-rule="evenodd"
     clip-rule="evenodd"
     d="M9.70698 6.29289C9.31646 5.90237 8.6833 5.90237 8.29277 6.29289C7.90225 6.68342 7.90225 7.31658 8.29277 7.70711L16.2928 15.7071L24.2928 23.7071C24.6833 24.0976 25.3165 24.0976 25.707 23.7071C26.0975 23.3166 26.0975 22.6834 25.707 22.2929L23.3109 19.8968C24.0625 19.2016 24.6426 18.5168 25.0402 17.9981C25.2481 17.727 25.4091 17.4973 25.5216 17.3297C25.578 17.2458 25.6224 17.1771 25.6546 17.1263C25.6707 17.1008 25.6838 17.0798 25.6939 17.0635L25.7066 17.0426L25.7113 17.0349L25.7132 17.0317L25.7141 17.0303C25.7145 17.0296 25.7148 17.029 23.9999 16L25.7148 17.029L26.3322 16L25.7148 14.971L23.9999 16C25.7148 14.971 25.7145 14.9704 25.7141 14.9697L25.7132 14.9683L25.7113 14.9651L25.7066 14.9574L25.6939 14.9365C25.6838 14.9202 25.6707 14.8992 25.6546 14.8737C25.6224 14.8229 25.578 14.7542 25.5216 14.6703C25.4091 14.5027 25.2481 14.273 25.0402 14.0019C24.6267 13.4626 24.016 12.7435 23.2202 12.0201C21.6522 10.5947 19.192 9 15.9999 9C14.8828 9 13.8553 9.19529 12.9244 9.51028L9.70698 6.29289ZM14.5552 11.1411C15.0159 11.0504 15.4978 11 15.9999 11C20.9999 11 23.9999 16 23.9999 16C23.9999 16 23.2573 17.2376 21.8954 18.4813L19.9626 16.5485C19.9872 16.3692 19.9999 16.1861 19.9999 16C19.9999 13.7909 18.209 12 15.9999 12C15.8138 12 15.6307 12.0127 15.4514 12.0373L14.5552 11.1411ZM8.77952 12.0201C9.0803 11.7467 9.41391 11.467 9.77923 11.1936L11.2105 12.6248C9.1491 14.0846 7.99986 16 7.99986 16C6.28488 14.971 6.28526 14.9704 6.28565 14.9697L6.2865 14.9683L6.2884 14.9651L6.29308 14.9574L6.30587 14.9365C6.31592 14.9202 6.32901 14.8992 6.34514 14.8737C6.37736 14.8229 6.42176 14.7542 6.47809 14.6703C6.59061 14.5027 6.75166 14.273 6.95952 14.0019C7.37301 13.4626 7.98374 12.7435 8.77952 12.0201ZM7.99986 16C7.99986 16 10.9999 21 15.9999 21C17.0905 21 18.0859 20.7621 18.9758 20.3901L20.481 21.8953C19.2145 22.541 17.7125 23 15.9999 23C12.8077 23 10.3475 21.4053 8.77952 19.9799C7.98374 19.2565 7.37301 18.5374 6.95952 17.9981C6.75166 17.727 6.59061 17.4973 6.47809 17.3297C6.42176 17.2458 6.37736 17.1771 6.34514 17.1263C6.32901 17.1008 6.31592 17.0798 6.30587 17.0635L6.29308 17.0426L6.2884 17.0349L6.2865 17.0317L6.28565 17.0303C6.28526 17.0296 6.28488 17.029 7.99986 16ZM7.99986 16L6.28488 17.029L5.66748 16L6.28488 14.971L7.99986 16ZM11.9999 16C11.9999 15.2582 12.2018 14.5635 12.5537 13.968L15.2928 16.7071L18.0318 19.4462C17.4363 19.7981 16.7417 20 15.9999 20C13.7907 20 11.9999 18.2091 11.9999 16Z"
     fill="#666666"
     id="path2"
     style="fill:#ffffff" />
</svg>
