<?xml version="1.0" encoding="UTF-8" standalone="no"?>
<svg
   width="32"
   height="32"
   viewBox="0 0 32 32"
   fill="none"
   version="1.1"
   id="svg4"
   sodipodi:docname="eye-open.svg"
   inkscape:version="1.2.1 (9c6d41e410, 2022-07-14)"
   xmlns:inkscape="http://www.inkscape.org/namespaces/inkscape"
   xmlns:sodipodi="http://sodipodi.sourceforge.net/DTD/sodipodi-0.dtd"
   xmlns="http://www.w3.org/2000/svg"
   xmlns:svg="http://www.w3.org/2000/svg">
  <defs
     id="defs8" />
  <sodipodi:namedview
     id="namedview6"
     pagecolor="#ffffff"
     bordercolor="#000000"
     borderopacity="0.25"
     inkscape:showpageshadow="2"
     inkscape:pageopacity="0.0"
     inkscape:pagecheckerboard="0"
     inkscape:deskcolor="#d1d1d1"
     showgrid="false"
     inkscape:zoom="23.21875"
     inkscape:cx="16"
     inkscape:cy="16"
     inkscape:window-width="1920"
     inkscape:window-height="1015"
     inkscape:window-x="1080"
     inkscape:window-y="876"
     inkscape:window-maximized="1"
     inkscape:current-layer="svg4" />
  <path
     fill-rule="evenodd"
     clip-rule="evenodd"
     d="M24.0001 16L25.7151 17.029L26.3325 16L25.7151 14.971L24.0001 16ZM8.00011 16C6.28512 14.971 6.2855 14.9704 6.28589 14.9697L6.28674 14.9683L6.28865 14.9651L6.29333 14.9574L6.30611 14.9365C6.31616 14.9202 6.32926 14.8992 6.34538 14.8737C6.37761 14.8229 6.422 14.7542 6.47834 14.6703C6.59085 14.5027 6.75191 14.273 6.95977 14.0019C7.37326 13.4626 7.98399 12.7435 8.77976 12.0201C10.3477 10.5947 12.808 9 16.0001 9C19.1922 9 21.6525 10.5947 23.2205 12.0201C24.0162 12.7435 24.627 13.4626 25.0404 14.0019C25.2483 14.273 25.4094 14.5027 25.5219 14.6703C25.5782 14.7542 25.6226 14.8229 25.6548 14.8737C25.671 14.8992 25.684 14.9202 25.6941 14.9365L25.7069 14.9574L25.7116 14.9651L25.7135 14.9683L25.7143 14.9697C25.7147 14.9704 25.7151 14.971 24.0001 16C24.0001 16 21.0001 11 16.0001 11C11.0001 11 8.00011 16 8.00011 16ZM8.00011 16L6.28512 14.971L5.66772 16L6.28512 17.029L8.00011 16ZM8.00011 16C6.28512 17.029 6.2855 17.0296 6.28589 17.0303L6.28674 17.0317L6.28865 17.0349L6.29333 17.0426L6.30611 17.0635C6.31616 17.0798 6.32926 17.1008 6.34538 17.1263C6.37761 17.1771 6.422 17.2458 6.47834 17.3297C6.59085 17.4973 6.75191 17.727 6.95977 17.9981C7.37326 18.5374 7.98399 19.2565 8.77976 19.9799C10.3477 21.4053 12.808 23 16.0001 23C19.1922 23 21.6525 21.4053 23.2205 19.9799C24.0162 19.2565 24.627 18.5374 25.0404 17.9981C25.2483 17.727 25.4094 17.4973 25.5219 17.3297C25.5782 17.2458 25.6226 17.1771 25.6548 17.1263C25.671 17.1008 25.684 17.0798 25.6941 17.0635L25.7069 17.0426L25.7116 17.0349L25.7135 17.0317L25.7143 17.0303C25.7147 17.0296 25.7151 17.029 24.0001 16C24.0001 16 21.0001 21 16.0001 21C11.0001 21 8.00011 16 8.00011 16ZM16.0001 12C13.791 12 12.0001 13.7909 12.0001 16C12.0001 18.2091 13.791 20 16.0001 20C18.2092 20 20.0001 18.2091 20.0001 16C20.0001 13.7909 18.2092 12 16.0001 12Z"
     fill="#666666"
     id="path2"
     style="fill:#ffffff" />
</svg>
