<svg width="48" height="48" viewBox="0 0 48 48" fill="none" xmlns="http://www.w3.org/2000/svg">
<path id="Vector" d="M39.6527 46.0673C39.7487 47.1317 37.0879 48.4886 36.2507 47.8241C29.0421 42.1032 18.9643 42.1017 11.7541 47.8195C10.9166 48.4836 8.2526 47.1245 8.34825 46.0601C8.78802 41.1655 6.83463 39.2121 1.94005 39.6518C0.875426 39.7475 -0.483611 37.0833 0.180579 36.2459C5.89829 29.0361 5.89671 18.9595 0.175882 11.7514C-0.48855 10.9142 0.868303 8.25309 1.93279 8.34894C6.83271 8.79019 8.78826 6.83701 8.34825 1.94006C8.25258 0.875449 10.9166 -0.4836 11.7541 0.180564C18.9643 5.89839 29.0421 5.89683 36.2507 0.175869C37.0879 -0.488535 39.7487 0.868321 39.6527 1.9328C39.2111 6.83494 41.1662 8.79031 46.0673 8.34897C47.1317 8.25311 48.4886 10.9141 47.8243 11.7513C42.1048 18.9594 42.1032 29.0363 47.8197 36.2459C48.4838 37.0835 47.1247 39.7475 46.0601 39.6518C41.1643 39.2121 39.2114 41.1676 39.6527 46.0673Z" fill="black"/>
</svg>
