<svg xmlns="http://www.w3.org/2000/svg" width="17" height="18" viewBox="0 0 17 18" fill="none">
  <path fill-rule="evenodd" clip-rule="evenodd" d="M3.39174 1.664C3.39174 0.704001 2.62374 0 1.69574 0C0.735738 0 0.0317383 0.704 0.0317383 1.664C0.0317382 2.592 0.735738 3.36 1.69574 3.36C2.62374 3.36 3.39174 2.592 3.39174 1.664ZM6.59174 4.864C6.59174 3.904 5.82374 3.2 4.89574 3.2C3.93574 3.2 3.23174 3.904 3.23174 4.864C3.23174 5.792 3.93574 6.56 4.89574 6.56C5.82374 6.56 6.59174 5.792 6.59174 4.864ZM9.79174 8.064C9.79174 7.104 9.02374 6.4 8.09574 6.4C7.13574 6.4 6.43174 7.104 6.43174 8.064C6.43174 8.992 7.13574 9.76 8.09574 9.76C9.02374 9.76 9.79174 8.992 9.79174 8.064ZM12.9917 4.864C12.9917 3.904 12.2237 3.2 11.2957 3.2C10.3357 3.2 9.63174 3.904 9.63174 4.864C9.63174 5.792 10.3357 6.56 11.2957 6.56C12.2237 6.56 12.9917 5.792 12.9917 4.864ZM16.1917 1.664C16.1917 0.704001 15.4237 0 14.4957 0C13.5357 0 12.8317 0.704001 12.8317 1.664C12.8317 2.592 13.5357 3.36 14.4957 3.36C15.4237 3.36 16.1917 2.592 16.1917 1.664ZM3.29613 15.3842C3.52013 14.7122 4.12813 14.2002 4.89613 14.2002C5.63213 14.2002 6.27213 14.7122 6.49613 15.3842C6.72013 14.7122 7.32813 14.2002 8.09613 14.2002C8.83213 14.2002 9.47213 14.7122 9.69613 15.3842C9.92013 14.7122 10.5281 14.2002 11.2961 14.2002C12.0321 14.2002 12.6721 14.7122 12.8961 15.3842C13.1201 14.7122 13.7281 14.2002 14.4961 14.2002C15.4241 14.2002 16.1921 14.9682 16.1921 15.8962C16.1921 16.8562 15.4241 17.5602 14.4961 17.5602C13.7281 17.5602 13.1201 17.1122 12.8961 16.4402C12.6721 17.1122 12.0321 17.5602 11.2961 17.5602C10.5281 17.5602 9.92013 17.1122 9.69613 16.4402C9.47213 17.1122 8.83213 17.5602 8.09613 17.5602C7.32813 17.5602 6.72013 17.1122 6.49613 16.4402C6.27213 17.1122 5.63213 17.5602 4.89613 17.5602C4.12813 17.5602 3.52013 17.1122 3.29613 16.4402C3.07213 17.1122 2.464 17.5602 1.696 17.5602C0.767999 17.5602 0 16.8562 0 15.8962C0 14.9682 0.767999 14.2002 1.696 14.2002C2.464 14.2002 3.07213 14.7122 3.29613 15.3842Z" fill="#313933"/>
</svg>
