<svg width="17" height="17" viewBox="0 0 17 17" fill="none" xmlns="http://www.w3.org/2000/svg">
<path d="M6.92 2.016C6.92 1.088 7.624 0.32 8.584 0.32C9.512 0.32 10.28 1.088 10.28 2.016C10.28 2.784 9.768 3.392 9.096 3.616C9.768 3.84 10.28 4.48 10.28 5.216C10.28 5.984 9.768 6.592 9.096 6.816C9.608 6.976 10.024 7.392 10.184 7.904C10.408 7.232 11.016 6.72 11.784 6.72C12.52 6.72 13.16 7.232 13.384 7.904C13.608 7.232 14.216 6.72 14.984 6.72C15.912 6.72 16.68 7.488 16.68 8.416C16.68 9.376 15.912 10.08 14.984 10.08C14.216 10.08 13.608 9.632 13.384 8.96C13.16 9.632 12.52 10.08 11.784 10.08C11.016 10.08 10.408 9.632 10.184 8.96C10.024 9.472 9.608 9.856 9.096 10.016C9.768 10.24 10.28 10.88 10.28 11.616C10.28 12.384 9.768 12.992 9.096 13.216C9.768 13.44 10.28 14.08 10.28 14.816C10.28 15.776 9.512 16.48 8.584 16.48C7.624 16.48 6.92 15.776 6.92 14.816C6.92 14.08 7.368 13.44 8.04 13.216C7.368 12.992 6.92 12.384 6.92 11.616C6.92 10.88 7.368 10.24 8.04 10.016C7.528 9.856 7.144 9.472 6.984 8.96C6.76 9.632 6.12 10.08 5.384 10.08C4.616 10.08 4.008 9.632 3.784 8.96C3.56 9.632 2.92 10.08 2.184 10.08C1.224 10.08 0.52 9.376 0.52 8.416C0.52 7.488 1.224 6.72 2.184 6.72C2.92 6.72 3.56 7.232 3.784 7.904C4.008 7.232 4.616 6.72 5.384 6.72C6.12 6.72 6.76 7.232 6.984 7.904C7.144 7.392 7.528 6.976 8.04 6.816C7.368 6.592 6.92 5.984 6.92 5.216C6.92 4.48 7.368 3.84 8.04 3.616C7.368 3.392 6.92 2.784 6.92 2.016Z" fill="#313933"/>
</svg>
