<?xml version="1.0" encoding="UTF-8" standalone="no"?>
<!-- Created with Inkscape (http://www.inkscape.org/) -->

<svg
   version="1.1"
   id="svg2"
   width="2557.0754"
   height="361.46112"
   viewBox="0 0 2557.0754 361.46112"
   sodipodi:docname="np-full.svg"
   inkscape:version="1.2.1 (9c6d41e410, 2022-07-14)"
   xmlns:inkscape="http://www.inkscape.org/namespaces/inkscape"
   xmlns:sodipodi="http://sodipodi.sourceforge.net/DTD/sodipodi-0.dtd"
   xmlns="http://www.w3.org/2000/svg"
   xmlns:svg="http://www.w3.org/2000/svg">
  <defs
     id="defs6">
    <clipPath
       clipPathUnits="userSpaceOnUse"
       id="clipPath18">
      <path
         d="M 0,1080 H 1920 V 0 H 0 Z"
         id="path16" />
    </clipPath>
  </defs>
  <sodipodi:namedview
     id="namedview4"
     pagecolor="#ffffff"
     bordercolor="#000000"
     borderopacity="0.25"
     inkscape:showpageshadow="2"
     inkscape:pageopacity="0.0"
     inkscape:pagecheckerboard="0"
     inkscape:deskcolor="#d1d1d1"
     showgrid="false"
     inkscape:zoom="0.49804688"
     inkscape:cx="1282.0078"
     inkscape:cy="719.81176"
     inkscape:window-width="1920"
     inkscape:window-height="1015"
     inkscape:window-x="1080"
     inkscape:window-y="876"
     inkscape:window-maximized="1"
     inkscape:current-layer="g10" />
  <g
     id="g10"
     inkscape:groupmode="layer"
     inkscape:label="Page 1"
     transform="matrix(1.3333333,0,0,-1.3333333,-2.1342249,889.52106)">
    <g
       id="g12"
       transform="matrix(1.2212194,0,0,1.2212194,-160.32936,-147.58452)">
      <g
         id="g14"
         clip-path="url(#clipPath18)">
        <g
           id="g20"
           transform="translate(573.2282,504.2348)">
          <path
             d="M 0,0 H -15.869 V 86.148 H 0 V 70.282 c 3.313,6.972 13.255,17.787 29.3,17.787 21.797,0 36.796,-16.217 36.796,-38.539 V 0 H 50.051 v 46.565 c 0,16.218 -9.766,26.857 -24.589,26.857 C 10.115,73.422 0,62.261 0,46.565 Z"
             style="fill:#ffffff;fill-opacity:1;fill-rule:nonzero;stroke:none"
             id="path22" />
        </g>
        <g
           id="g24"
           transform="translate(706.2952,577.827)">
          <path
             d="m 0,0 c -17.439,0 -28.6,-13.253 -28.6,-30.518 0,-17.261 11.161,-30.519 28.6,-30.519 16.742,0 27.902,13.258 27.902,30.519 C 27.902,-13.253 16.742,0 0,0 m 27.554,-58.769 c -2.443,-4.359 -10.812,-16.915 -30.519,-16.915 -22.67,0 -42.028,16.744 -42.028,45.166 0,27.905 19.358,45.17 42.028,45.17 19.009,0 28.252,-11.687 30.519,-16.392 V 12.555 H 43.422 V -73.592 H 27.554 Z"
             style="fill:#ffffff;fill-opacity:1;fill-rule:nonzero;stroke:none"
             id="path26" />
        </g>
        <g
           id="g28"
           transform="translate(843.8995,504.2348)">
          <path
             d="m 0,0 h -20.406 c -20.055,0 -30.17,9.591 -30.17,28.778 v 43.074 h -25.459 v 14.296 h 25.459 v 37.671 h 15.872 V 86.148 H 0 V 71.852 H -34.704 V 32.44 c 0,-12.556 4.01,-17.788 17.787,-17.788 H 0 Z"
             style="fill:#ffffff;fill-opacity:1;fill-rule:nonzero;stroke:none"
             id="path30" />
        </g>
        <path
           d="m 865.7,590.383 h 15.871 V 504.235 H 865.7 Z m -0.349,41.509 h 16.569 v -24.941 h -16.569 z"
           style="fill:#ffffff;fill-opacity:1;fill-rule:nonzero;stroke:none"
           id="path32" />
        <g
           id="g34"
           transform="translate(952.0258,502.6647)">
          <path
             d="m 0,0 h -12.731 l -40.634,87.718 h 17.788 l 29.648,-66.439 29.47,66.439 h 16.393 z"
             style="fill:#ffffff;fill-opacity:1;fill-rule:nonzero;stroke:none"
             id="path36" />
        </g>
        <g
           id="g38"
           transform="translate(1019.5187,558.6453)">
          <path
             d="M 0,0 H 53.016 C 49.006,13.082 39.761,20.23 26.684,20.23 12.731,20.23 3.313,12.555 0,0 M 70.628,-13.253 H -1.046 c 0.873,-16.041 12.383,-28.602 29.297,-28.602 17.266,0 24.241,9.245 25.638,12.034 h 15.693 c -1.395,-7.499 -12.38,-26.681 -41.331,-26.681 -26.681,0 -45.341,19.879 -45.341,45.165 0,25.984 18.66,45.171 43.774,45.171 25.286,0 43.944,-18.836 43.944,-47.087"
             style="fill:#ffffff;fill-opacity:1;fill-rule:nonzero;stroke:none"
             id="path40" />
        </g>
        <g
           id="g42"
           transform="translate(1199.1536,516.7902)">
          <path
             d="M 0,0 C 17.439,0 28.948,13.258 28.948,30.518 28.948,47.784 17.439,61.037 0,61.037 -17.439,61.037 -28.948,47.784 -28.948,30.518 -28.948,13.258 -17.439,0 0,0 M -28.6,-51.616 H -44.295 V 73.592 H -28.6 V 58.77 c 1.919,4.364 12.032,16.919 31.389,16.919 23.019,0 42.377,-16.744 42.377,-45.171 0,-28.597 -19.358,-45.165 -42.377,-45.165 -18.833,0 -29.47,11.858 -31.389,16.047 z"
             style="fill:#ffffff;fill-opacity:1;fill-rule:nonzero;stroke:none"
             id="path44" />
        </g>
        <path
           d="m 1267.695,632.589 h 15.869 V 504.235 h -15.869 z"
           style="fill:#ffffff;fill-opacity:1;fill-rule:nonzero;stroke:none"
           id="path46" />
        <g
           id="g48"
           transform="translate(1351.9292,577.827)">
          <path
             d="m 0,0 c -17.439,0 -28.6,-13.253 -28.6,-30.518 0,-17.261 11.161,-30.519 28.6,-30.519 16.741,0 27.902,13.258 27.902,30.519 C 27.902,-13.253 16.741,0 0,0 m 27.554,-58.769 c -2.443,-4.359 -10.813,-16.915 -30.518,-16.915 -22.671,0 -42.029,16.744 -42.029,45.166 0,27.905 19.358,45.17 42.029,45.17 19.008,0 28.25,-11.687 30.518,-16.392 V 12.555 H 43.422 V -73.592 H 27.554 Z"
             style="fill:#ffffff;fill-opacity:1;fill-rule:nonzero;stroke:none"
             id="path50" />
        </g>
        <g
           id="g52"
           transform="translate(1440.5278,504.2348)">
          <path
             d="M 0,0 H -15.871 V 86.148 H 0 V 70.282 c 3.311,6.972 13.253,17.787 29.294,17.787 21.801,0 36.799,-16.217 36.799,-38.539 V 0 H 50.046 v 46.565 c 0,16.218 -9.761,26.857 -24.589,26.857 C 10.113,73.422 0,62.261 0,46.565 Z"
             style="fill:#ffffff;fill-opacity:1;fill-rule:nonzero;stroke:none"
             id="path54" />
        </g>
        <g
           id="g56"
           transform="translate(1545.5167,558.6453)">
          <path
             d="M 0,0 H 53.011 C 49.003,13.082 39.758,20.23 26.681,20.23 12.731,20.23 3.311,12.555 0,0 M 70.628,-13.253 H -1.048 c 0.872,-16.041 12.379,-28.602 29.299,-28.602 17.26,0 24.238,9.245 25.633,12.034 h 15.695 c -1.394,-7.499 -12.38,-26.681 -41.328,-26.681 -26.681,0 -45.341,19.879 -45.341,45.165 0,25.984 18.66,45.171 43.771,45.171 25.287,0 43.947,-18.836 43.947,-47.087"
             style="fill:#ffffff;fill-opacity:1;fill-rule:nonzero;stroke:none"
             id="path58" />
        </g>
        <g
           id="g60"
           transform="translate(1703,504.2348)">
          <path
             d="m 0,0 h -20.406 c -20.055,0 -30.167,9.591 -30.167,28.778 v 43.074 h -25.462 v 14.296 h 25.462 v 37.671 h 15.866 V 86.148 H 0 V 71.852 H -34.707 V 32.44 c 0,-12.556 4.013,-17.788 17.793,-17.788 H 0 Z"
             style="fill:#ffffff;fill-opacity:1;fill-rule:nonzero;stroke:none"
             id="path62" />
        </g>
        <g
           id="g64"
           transform="translate(190.181,613.7309)">
          <path
             d="m 0,0 c -31.803,0 -57.584,-25.781 -57.584,-57.584 0,-31.802 25.781,-57.584 57.584,-57.584 31.803,0 57.584,25.782 57.584,57.584 C 57.584,-25.781 31.803,0 0,0"
             style="fill:#ffffff;fill-opacity:1;fill-rule:nonzero;stroke:none"
             id="path66" />
        </g>
        <g
           id="g68"
           transform="translate(446.4761,548.876)">
          <path
             d="m 0,0 v 30.365 c 0,5.035 -2.992,6.323 -6.648,2.861 L -144.132,-96.922 c -3.951,-3.74 -2.732,-6.801 2.709,-6.801 h 32.076 c 1.008,0 1.977,0.386 2.709,1.079 L -1.231,-2.861 C -0.445,-2.117 0,-1.082 0,0"
             style="fill:#ffffff;fill-opacity:1;fill-rule:nonzero;stroke:none"
             id="path70" />
        </g>
        <g
           id="g72"
           transform="translate(446.4761,631.5776)">
          <path
             d="m 0,0 v 31.616 c 0,3.461 -4.143,5.24 -6.653,2.856 l -224.99,-214.095 c -3.951,-3.741 -2.732,-6.801 2.709,-6.801 h 32.1 c 0.992,0 1.947,0.38 2.668,1.062 L -1.235,-2.865 C -0.447,-2.12 0,-1.084 0,0"
             style="fill:#ffffff;fill-opacity:1;fill-rule:nonzero;stroke:none"
             id="path74" />
        </g>
        <g
           id="g76"
           transform="translate(393.6044,445.1533)">
          <path
             d="m 0,0 h 41.23 c 6.403,0 11.642,5.239 11.642,11.642 v 38.616 c 0,3.406 -4.075,5.159 -6.549,2.818 L -2.668,6.699 C -5.216,4.287 -3.509,0 0,0"
             style="fill:#ffffff;fill-opacity:1;fill-rule:nonzero;stroke:none"
             id="path78" />
        </g>
      </g>
    </g>
  </g>
</svg>
