<?xml version="1.0" encoding="UTF-8" standalone="no"?>
<svg
   width="24"
   height="24"
   viewBox="0 0 24 24"
   fill="none"
   version="1.1"
   id="svg4"
   sodipodi:docname="settings.svg"
   inkscape:version="1.2.1 (9c6d41e410, 2022-07-14)"
   xmlns:inkscape="http://www.inkscape.org/namespaces/inkscape"
   xmlns:sodipodi="http://sodipodi.sourceforge.net/DTD/sodipodi-0.dtd"
   xmlns="http://www.w3.org/2000/svg"
   xmlns:svg="http://www.w3.org/2000/svg">
  <defs
     id="defs8" />
  <sodipodi:namedview
     id="namedview6"
     pagecolor="#ffffff"
     bordercolor="#000000"
     borderopacity="0.25"
     inkscape:showpageshadow="2"
     inkscape:pageopacity="0.0"
     inkscape:pagecheckerboard="0"
     inkscape:deskcolor="#d1d1d1"
     showgrid="false"
     inkscape:zoom="30.958333"
     inkscape:cx="12"
     inkscape:cy="12"
     inkscape:window-width="1920"
     inkscape:window-height="1015"
     inkscape:window-x="1080"
     inkscape:window-y="876"
     inkscape:window-maximized="1"
     inkscape:current-layer="svg4" />
  <path
     fill-rule="evenodd"
     clip-rule="evenodd"
     d="M7 3C7.55228 3 8 3.44772 8 4V10.126C9.72523 10.5701 11 12.1362 11 14C11 15.8638 9.72523 17.4299 8 17.874V20C8 20.5523 7.55228 21 7 21C6.44772 21 6 20.5523 6 20V17.874C4.27477 17.4299 3 15.8638 3 14C3 12.1362 4.27477 10.5701 6 10.126V4C6 3.44772 6.44772 3 7 3ZM18 7.12602V4C18 3.44772 17.5523 3 17 3C16.4477 3 16 3.44772 16 4V7.12602C14.2748 7.57006 13 9.13616 13 11C13 12.8638 14.2748 14.4299 16 14.874V20C16 20.5523 16.4477 21 17 21C17.5523 21 18 20.5523 18 20V14.874C19.7252 14.4299 21 12.8638 21 11C21 9.13616 19.7252 7.57006 18 7.12602ZM7 16C8.10457 16 9 15.1046 9 14C9 12.8954 8.10457 12 7 12C5.89543 12 5 12.8954 5 14C5 15.1046 5.89543 16 7 16Z"
     fill="#666666"
     id="path2"
     style="fill:#ffffff" />
</svg>
