<svg width="48" height="32" viewBox="0 0 48 32" fill="none" xmlns="http://www.w3.org/2000/svg">
<g id="Group 13">
<path id="Vector" d="M21.5039 21.5L21.5039 19.4375C21.9341 19.3273 22.3154 19.0771 22.5877 18.7263C22.86 18.3755 23.0078 17.9441 23.0078 17.5C23.0078 17.0559 22.86 16.6245 22.5877 16.2737C22.3154 15.9228 21.9341 15.6727 21.5039 15.5625L21.5039 10.5C21.5039 10.3674 21.4512 10.2402 21.3575 10.1464C21.2637 10.0527 21.1365 10 21.0039 10C20.8713 10 20.7441 10.0527 20.6504 10.1464C20.5566 10.2402 20.5039 10.3674 20.5039 10.5L20.5039 15.5625C20.0737 15.6727 19.6924 15.9229 19.4201 16.2737C19.1478 16.6245 19 17.0559 19 17.5C19 17.9441 19.1478 18.3755 19.4201 18.7263C19.6924 19.0771 20.0737 19.3273 20.5039 19.4375L20.5039 21.5C20.5039 21.6326 20.5566 21.7598 20.6504 21.8536C20.7441 21.9473 20.8713 22 21.0039 22C21.1365 22 21.2637 21.9473 21.3575 21.8536C21.4512 21.7598 21.5039 21.6326 21.5039 21.5ZM20.0039 17.5C20.0039 17.3022 20.0626 17.1089 20.1725 16.9444C20.2823 16.78 20.4385 16.6518 20.6212 16.5761C20.804 16.5004 21.005 16.4806 21.199 16.5192C21.393 16.5578 21.5712 16.653 21.711 16.7929C21.8509 16.9327 21.9461 17.1109 21.9847 17.3049C22.0233 17.4989 22.0035 17.7 21.9278 17.8827C21.8521 18.0654 21.7239 18.2216 21.5595 18.3315C21.395 18.4414 21.2017 18.5 21.0039 18.5C20.7387 18.5 20.4844 18.3946 20.2968 18.2071C20.1093 18.0196 20.0039 17.7652 20.0039 17.5ZM26.5039 10.5L26.5039 11.5625C26.0737 11.6727 25.6924 11.9229 25.4201 12.2737C25.1478 12.6245 25 13.0559 25 13.5C25 13.9441 25.1478 14.3755 25.4201 14.7263C25.6924 15.0771 26.0737 15.3273 26.5039 15.4375L26.5039 21.5C26.5039 21.6326 26.5566 21.7598 26.6504 21.8536C26.7441 21.9473 26.8713 22 27.0039 22C27.1365 22 27.2637 21.9473 27.3575 21.8536C27.4512 21.7598 27.5039 21.6326 27.5039 21.5L27.5039 15.4375C27.9341 15.3273 28.3154 15.0771 28.5877 14.7263C28.86 14.3755 29.0078 13.9441 29.0078 13.5C29.0078 13.0559 28.86 12.6245 28.5877 12.2737C28.3154 11.9229 27.9341 11.6726 27.5039 11.5625L27.5039 10.5C27.5039 10.3674 27.4512 10.2402 27.3575 10.1464C27.2637 10.0527 27.1365 10 27.0039 10C26.8713 10 26.7441 10.0527 26.6504 10.1464C26.5566 10.2402 26.5039 10.3674 26.5039 10.5ZM28.0039 13.5C28.0039 13.6978 27.9453 13.8911 27.8354 14.0556C27.7255 14.22 27.5693 14.3482 27.3866 14.4239C27.2039 14.4996 27.0028 14.5194 26.8088 14.4808C26.6148 14.4422 26.4367 14.347 26.2968 14.2071C26.157 14.0673 26.0617 13.8891 26.0231 13.6951C25.9846 13.5011 26.0044 13.3 26.08 13.1173C26.1557 12.9346 26.2839 12.7784 26.4484 12.6685C26.6128 12.5586 26.8061 12.5 27.0039 12.5C27.2691 12.5 27.5235 12.6054 27.711 12.7929C27.8986 12.9804 28.0039 13.2348 28.0039 13.5Z" fill="#E8E8E3"/>
</g>
</svg>
