<svg viewBox="0 0 64 64" version="1.1" xmlns="http://www.w3.org/2000/svg" class="" style="display: block; width: 64px; height: 64px;"><rect fill="white" width="64px" height="64px" x="0px" y="0px"></rect><g transform="matrix(0.2,0,0,0.2,6.399999999999999,6.399999999999999)"><g fill="none" transform="matrix(1,0,0,1,0,0)"><path d="M0.0541 0C70.7217 0.0292317 128 57.3256 128 128C57.3177 128 0.0164917 70.7089 7.62806e-06 0.0305091C7.62851e-06 0.0203397 -4.44317e-10 0.01017 0 0H0.0541Z" fill="black" stroke="white" stroke-width="0.8300000000000001px" dataisgeon="true" stroke-linecap="square" vector-effect="non-scaling-stroke"></path><line x1="-0.0029152" x2="127.983" y2="127.986" stroke="white" stroke-linecap="square" fill="none" stroke-width="0.8300000000000001px" vector-effect="non-scaling-stroke"></line><path d="M2.82114e-06 110C60.7513 110 110 60.7513 110 0" stroke="white" fill="none" stroke-width="0.8300000000000001px" stroke-linecap="square" vector-effect="non-scaling-stroke"></path><path d="M-5.09828e-06 73C40.3168 73 73 40.3168 73 0" stroke="white" fill="none" stroke-width="0.8300000000000001px" stroke-linecap="square" vector-effect="non-scaling-stroke"></path><path d="M-6.63647e-07 37C20.4345 37 37 20.4345 37 0" stroke="white" fill="none" stroke-width="0.8300000000000001px" stroke-linecap="square" vector-effect="non-scaling-stroke"></path></g><g fill="none" transform="matrix(1,0,0,1,128,0)"><path d="M5.59506e-06 128C70.6925 128 128 70.6925 128 0L0 5.59506e-06L5.59506e-06 128Z" fill="black" stroke="white" stroke-width="0.8300000000000001px" dataisgeon="true" stroke-linecap="square" vector-effect="non-scaling-stroke"></path><path fill-rule="evenodd" clip-rule="evenodd" d="M80 64C80 72.8366 72.8366 80 64 80C55.1634 80 48 72.8366 48 64C48 55.1634 55.1634 48 64 48C72.8366 48 80 55.1634 80 64ZM64 72C68.4183 72 72 68.4183 72 64C72 59.5817 68.4183 56 64 56C59.5817 56 56 59.5817 56 64C56 68.4183 59.5817 72 64 72Z" fill="white"></path></g><g fill="none" transform="matrix(1,0,0,1,0,128)"><circle cx="64" cy="64" r="64" fill="black" stroke="white" stroke-width="0.8300000000000001px" dataisgeon="true" stroke-linecap="square" vector-effect="non-scaling-stroke"></circle><path d="M128 128L0 0" stroke="white" stroke-linecap="square" fill="none" stroke-width="0.8300000000000001px" vector-effect="non-scaling-stroke"></path><path d="M30.0589 30.0589C48.804 11.3137 79.196 11.3137 97.9411 30.0589C116.686 48.804 116.686 79.196 97.9411 97.9411" stroke="white" fill="none" stroke-width="0.8300000000000001px" stroke-linecap="square" vector-effect="non-scaling-stroke"></path><path d="M52.6863 52.6863C58.9347 46.4379 69.0653 46.4379 75.3137 52.6863C81.5621 58.9347 81.5621 69.0653 75.3137 75.3137" stroke="white" fill="none" stroke-width="0.8300000000000001px" stroke-linecap="square" vector-effect="non-scaling-stroke"></path><path d="M41.3726 41.3726C53.8694 28.8758 74.1306 28.8758 86.6274 41.3726C99.1242 53.8694 99.1242 74.1306 86.6274 86.6274" stroke="white" fill="none" stroke-width="0.8300000000000001px" stroke-linecap="square" vector-effect="non-scaling-stroke"></path></g><g fill="none" transform="matrix(1,0,0,1,128,128)"><path d="M0 0C0 70.6925 57.3075 128 128 128V0H0Z" fill="black" stroke="white" stroke-width="0.8300000000000001px" dataisgeon="true" stroke-linecap="square" vector-effect="non-scaling-stroke"></path><path d="M128 0L0 128" stroke="white" stroke-linecap="square" fill="none" stroke-width="0.8300000000000001px" vector-effect="non-scaling-stroke"></path><path d="M128 128C92.6489 128 60.6449 113.669 37.4807 90.5" stroke="white" fill="none" stroke-width="0.8300000000000001px" stroke-linecap="square" vector-effect="non-scaling-stroke"></path><path d="M128 96C101.492 96 77.4939 85.2564 60.1217 67.8862" stroke="white" fill="none" stroke-width="0.8300000000000001px" stroke-linecap="square" vector-effect="non-scaling-stroke"></path><path d="M128 64C110.328 64 94.3287 56.8374 82.7471 45.2568" stroke="white" fill="none" stroke-width="0.8300000000000001px" stroke-linecap="square" vector-effect="non-scaling-stroke"></path><path d="M128 32.3716C119.164 32.3716 111.164 28.7903 105.374 23" stroke="white" fill="none" stroke-width="0.8300000000000001px" stroke-linecap="square" vector-effect="non-scaling-stroke"></path></g></g></svg>
